<svg width="25" height="17" viewBox="0 0 25 17" fill="none" xmlns="http://www.w3.org/2000/svg">
<path d="M2.91675 0C1.68042 0 0.666748 1.01367 0.666748 2.25V12.75C0.666748 13.9863 1.68042 15 2.91675 15H3.80737C4.11792 15.8672 4.94409 16.5 5.91675 16.5C6.88941 16.5 7.71558 15.8672 8.02612 15H17.2664C17.5769 15.8672 18.4031 16.5 19.3757 16.5C20.3484 16.5 21.1746 15.8672 21.4851 15H22.4167C23.6472 15 24.6667 13.9863 24.6667 12.75V10.207C24.6667 9.76172 24.532 9.32227 24.2859 8.95312L21.948 5.50195C21.5261 4.875 20.823 4.5 20.073 4.5H15.6667V2.25C15.6667 1.01367 14.6531 0 13.4167 0H2.91675ZM2.91675 1.5H13.4167C13.8386 1.5 14.1667 1.82812 14.1667 2.25V13.5H8.02612C7.71558 12.6328 6.88941 12 5.91675 12C4.94409 12 4.11792 12.6328 3.80737 13.5H2.91675C2.49487 13.5 2.16675 13.1719 2.16675 12.75V2.25C2.16675 1.82812 2.49487 1.5 2.91675 1.5ZM15.6667 6H20.073C20.325 6 20.5593 6.12891 20.7 6.33398V6.33984L23.0378 9.79102C23.1199 9.91406 23.1667 10.0547 23.1667 10.207V12.75C23.1667 13.1719 22.8386 13.5 22.4167 13.5H21.4851C21.1746 12.6328 20.3484 12 19.3757 12C18.4031 12 17.5769 12.6328 17.2664 13.5H15.6667V6ZM5.91675 13.5C6.33862 13.5 6.66675 13.8281 6.66675 14.25C6.66675 14.6719 6.33862 15 5.91675 15C5.49487 15 5.16675 14.6719 5.16675 14.25C5.16675 13.8281 5.49487 13.5 5.91675 13.5ZM19.3757 13.5C19.7976 13.5 20.1257 13.8281 20.1257 14.25C20.1257 14.6719 19.7976 15 19.3757 15C18.9539 15 18.6257 14.6719 18.6257 14.25C18.6257 13.8281 18.9539 13.5 19.3757 13.5Z" fill="#225C4B"/>
</svg>
