<svg width="19" height="18" viewBox="0 0 19 18" fill="none" xmlns="http://www.w3.org/2000/svg">
<path d="M9.33325 0C7.32935 0 5.63599 1.29492 5.05591 3.13477C4.7395 3.04688 4.41138 3 4.08325 3C2.01489 3 0.333252 4.68164 0.333252 6.75C0.333252 8.56055 1.62231 10.0781 3.33325 10.4238V17.25C3.33325 17.666 3.66724 18 4.08325 18H14.5833C14.9993 18 15.3333 17.666 15.3333 17.25V10.4238C17.0442 10.0781 18.3333 8.56055 18.3333 6.75C18.3333 4.68164 16.6516 3 14.5833 3C14.2551 3 13.927 3.04688 13.6047 3.13477C13.0305 1.29492 11.3372 0 9.33325 0ZM9.33325 1.5C10.8918 1.5 12.1692 2.67773 12.304 4.24219L12.4036 5.44922L13.4348 4.82812C13.7981 4.61133 14.1848 4.5 14.5833 4.5C15.8254 4.5 16.8333 5.50781 16.8333 6.75C16.8333 7.99219 15.8254 9 14.5833 9H13.0833C12.6672 9 12.3333 9.33398 12.3333 9.75C12.3333 10.166 12.6672 10.5 13.0833 10.5H13.8333V13.5H4.83325V10.5H5.58325C5.99927 10.5 6.33325 10.166 6.33325 9.75C6.33325 9.33398 5.99927 9 5.58325 9H4.08325C2.84106 9 1.83325 7.99219 1.83325 6.75C1.83325 5.50781 2.84106 4.5 4.08325 4.5C4.48169 4.5 4.86841 4.61133 5.23169 4.82812L6.26294 5.44922L6.36255 4.24219C6.49731 2.67773 7.77466 1.5 9.33325 1.5ZM4.83325 15H13.8333V16.5H4.83325V15Z" fill="#225C4B"/>
</svg>
