<svg width="20" height="20" viewBox="0 0 20 20" fill="none" xmlns="http://www.w3.org/2000/svg">
<path d="M9.25 0.25V4.75H10.75V0.25H9.25ZM3.63672 2.57617L2.57617 3.63672L5.21875 6.28516L6.28516 5.21875L3.63672 2.57617ZM16.3633 2.57617L13.1523 5.78125L14.2188 6.84766L17.4238 3.63672L16.3633 2.57617ZM0.25 9.25V10.75H3.25V9.25H0.25ZM15.25 9.25V10.75H19.75V9.25H15.25ZM4.09375 14.8457L2.57617 16.3633L3.63672 17.4238L5.16016 15.9062L4.09375 14.8457ZM16.3633 15.3027L15.3027 16.3633L16.3633 17.4238L17.4238 16.3633L16.3633 15.3027ZM9.25 18.25V19.75H10.75V18.25H9.25Z" fill="#225C4B"/>
</svg>
