<svg width="20" height="20" viewBox="0 0 20 20" fill="none" xmlns="http://www.w3.org/2000/svg">
<path d="M10 0.25C4.62695 0.25 0.25 4.62695 0.25 10C0.25 15.373 4.62695 19.75 10 19.75C15.373 19.75 19.75 15.373 19.75 10C19.75 4.62695 15.373 0.25 10 0.25ZM10 1.75C14.5645 1.75 18.25 5.43555 18.25 10C18.25 14.5645 14.5645 18.25 10 18.25C5.43555 18.25 1.75 14.5645 1.75 10C1.75 5.43555 5.43555 1.75 10 1.75ZM13.9668 6.47266L8.5 11.9395L6.02734 9.47266L4.97266 10.5273L8.5 14.0605L15.0332 7.52734L13.9668 6.47266Z" fill="#225C4B"/>
</svg>
