<svg width="32" height="33" viewBox="0 0 32 33" fill="none" xmlns="http://www.w3.org/2000/svg">
<path d="M15 4.5C12.0659 4.5 9.39566 5.25144 7.39453 6.51172C5.39341 7.77199 4 9.61764 4 11.75V12.6875C2.84193 13.1045 2 14.2063 2 15.5C2 16.2682 2.30268 16.9668 2.78516 17.5C2.30268 18.0332 2 18.7318 2 19.5C2 20.7937 2.84193 21.8955 4 22.3125V23.5C4 25.1451 5.35494 26.5 7 26.5H23C24.6451 26.5 26 25.1451 26 23.5V22.3125C27.1581 21.8955 28 20.7937 28 19.5C28 18.7318 27.6973 18.0332 27.2148 17.5C27.6973 16.9668 28 16.2682 28 15.5C28 14.2063 27.1581 13.1045 26 12.6875V11.625C26 9.49264 24.5966 7.66848 22.5938 6.44141C20.5909 5.21433 17.9266 4.5 15 4.5ZM15 6.5C17.5954 6.5 19.9303 7.15801 21.5469 8.14844C23.1635 9.13886 24 10.3754 24 11.625V12.5H6V11.75C6 10.5004 6.84256 9.22235 8.46094 8.20312C10.0793 7.1839 12.4121 6.5 15 6.5ZM5 14.5H24.9297H25C25.5629 14.5 26 14.9371 26 15.5C26 16.0629 25.5629 16.5 25 16.5H5.07031H5C4.43706 16.5 4 16.0629 4 15.5C4 14.9371 4.43706 14.5 5 14.5ZM5 18.5H6.83594C6.7539 18.5134 6.67385 18.5371 6.59766 18.5703C6.53593 18.5969 6.47704 18.6296 6.42188 18.668C6.34031 18.7258 6.26789 18.7956 6.20703 18.875C6.1664 18.9274 6.13107 18.9836 6.10156 19.043C6.08696 19.0735 6.07392 19.1048 6.0625 19.1367C6.05054 19.1674 6.04012 19.1987 6.03125 19.2305C6.03125 19.2318 6.03125 19.2331 6.03125 19.2344C6.02325 19.2653 6.01673 19.2966 6.01172 19.3281C6.00608 19.3618 6.00217 19.3957 6 19.4297C5.99918 19.4531 5.99918 19.4766 6 19.5C6 20.0407 5.59316 20.4556 5.0625 20.4883C5.03652 20.486 5.01046 20.4847 4.98438 20.4844C4.96872 20.4853 4.95309 20.4866 4.9375 20.4883C4.40684 20.4556 4 20.0407 4 19.5C4 18.9371 4.43706 18.5 5 18.5ZM7.18359 18.5H10.8359C10.8097 18.5042 10.7836 18.5094 10.7578 18.5156C10.7513 18.5169 10.7448 18.5182 10.7383 18.5195C10.7225 18.5244 10.7069 18.5296 10.6914 18.5352C10.6676 18.5434 10.6442 18.5525 10.6211 18.5625C10.6026 18.5698 10.5844 18.5776 10.5664 18.5859C10.5612 18.5885 10.556 18.5911 10.5508 18.5938C10.5363 18.6012 10.5219 18.609 10.5078 18.6172C10.4879 18.6282 10.4683 18.64 10.4492 18.6523C10.44 18.6574 10.4309 18.6626 10.4219 18.668C10.4086 18.6781 10.3956 18.6885 10.3828 18.6992C10.3695 18.7093 10.3565 18.7197 10.3438 18.7305C10.3317 18.7419 10.32 18.7536 10.3086 18.7656C10.2966 18.7771 10.2849 18.7888 10.2734 18.8008C10.2558 18.8184 10.2389 18.8366 10.2227 18.8555C10.2174 18.8619 10.2122 18.8684 10.207 18.875C10.1976 18.8891 10.1884 18.9034 10.1797 18.918C10.1674 18.9345 10.1557 18.9515 10.1445 18.9688C10.132 18.9904 10.1203 19.0126 10.1094 19.0352C10.1026 19.0467 10.0961 19.0585 10.0898 19.0703C10.0857 19.082 10.0818 19.0937 10.0781 19.1055C10.0682 19.1273 10.0591 19.1494 10.0508 19.1719C10.048 19.181 10.0454 19.1901 10.043 19.1992C10.0373 19.216 10.0321 19.2329 10.0273 19.25C10.0246 19.2604 10.022 19.2708 10.0195 19.2812C10.0165 19.2981 10.0139 19.315 10.0117 19.332C10.0082 19.3567 10.0056 19.3814 10.0039 19.4062C10.0025 19.414 10.0012 19.4219 10 19.4297C9.99957 19.4466 9.99957 19.4635 10 19.4805C9.99994 19.487 9.99994 19.4935 10 19.5C10 20.0629 9.56294 20.5 9 20.5C8.43706 20.5 8 20.0629 8 19.5C8.00165 19.3661 7.97642 19.2333 7.92578 19.1094C7.88823 19.0163 7.83687 18.9294 7.77344 18.8516C7.7108 18.7747 7.63708 18.7075 7.55469 18.6523C7.55339 18.6523 7.55208 18.6523 7.55078 18.6523C7.52427 18.6341 7.49689 18.6172 7.46875 18.6016C7.46745 18.6016 7.46615 18.6016 7.46484 18.6016C7.4369 18.5859 7.40822 18.5715 7.37891 18.5586C7.3776 18.5586 7.3763 18.5586 7.375 18.5586C7.31332 18.5327 7.24919 18.5131 7.18359 18.5ZM11.1875 18.5H14.8359C14.8097 18.5042 14.7836 18.5094 14.7578 18.5156C14.7513 18.5169 14.7448 18.5182 14.7383 18.5195C14.7225 18.5244 14.7069 18.5296 14.6914 18.5352C14.6676 18.5434 14.6442 18.5525 14.6211 18.5625C14.6132 18.565 14.6054 18.5676 14.5977 18.5703C14.5818 18.5777 14.5662 18.5855 14.5508 18.5938C14.506 18.6153 14.4629 18.6401 14.4219 18.668C14.4086 18.6781 14.3956 18.6885 14.3828 18.6992C14.3695 18.7093 14.3565 18.7197 14.3438 18.7305C14.3317 18.7419 14.32 18.7536 14.3086 18.7656C14.2966 18.7771 14.2849 18.7888 14.2734 18.8008C14.2558 18.8184 14.2389 18.8366 14.2227 18.8555C14.2174 18.8619 14.2122 18.8684 14.207 18.875C14.1976 18.8891 14.1884 18.9034 14.1797 18.918C14.1506 18.9577 14.1245 18.9994 14.1016 19.043C14.0947 19.0584 14.0881 19.0741 14.082 19.0898C14.0751 19.1053 14.0686 19.1209 14.0625 19.1367C14.0569 19.1522 14.0517 19.1678 14.0469 19.1836C14.038 19.2093 14.0302 19.2354 14.0234 19.2617C14.0189 19.2811 14.015 19.3007 14.0117 19.3203C14.0117 19.3255 14.0117 19.3307 14.0117 19.3359C14.0083 19.3593 14.0057 19.3827 14.0039 19.4062C14.0025 19.414 14.0012 19.4219 14 19.4297C13.9996 19.4466 13.9996 19.4635 14 19.4805C13.9999 19.487 13.9999 19.4935 14 19.5C14 20.0629 13.5629 20.5 13 20.5C12.4371 20.5 12 20.0629 12 19.5C12.0004 19.4661 11.9991 19.4322 11.9961 19.3984C11.9845 19.2654 11.9464 19.136 11.884 19.0179C11.8216 18.8999 11.7362 18.7955 11.6328 18.7109C11.6065 18.69 11.5791 18.6705 11.5508 18.6523C11.4955 18.6153 11.4366 18.5839 11.375 18.5586C11.3146 18.533 11.2518 18.5133 11.1875 18.5ZM15.1836 18.5H18.8359C18.6792 18.5257 18.5309 18.5883 18.4032 18.6828C18.2754 18.7772 18.1721 18.9007 18.1016 19.043C18.1016 19.0443 18.1016 19.0456 18.1016 19.0469C18.0722 19.1056 18.0486 19.1671 18.0312 19.2305C18.0312 19.2318 18.0312 19.2331 18.0312 19.2344C18.0232 19.2653 18.0167 19.2966 18.0117 19.3281C18.0117 19.3294 18.0117 19.3307 18.0117 19.332C18.0062 19.3644 18.0023 19.397 18 19.4297C17.9992 19.4531 17.9992 19.4766 18 19.5C18 20.0629 17.5629 20.5 17 20.5C16.4371 20.5 16 20.0629 16 19.5C16.0017 19.3661 15.9764 19.2333 15.9258 19.1094C15.8882 19.0163 15.8369 18.9294 15.7734 18.8516C15.7108 18.7747 15.6371 18.7075 15.5547 18.6523C15.5534 18.6523 15.5521 18.6523 15.5508 18.6523C15.5243 18.6341 15.4969 18.6172 15.4688 18.6016C15.4674 18.6016 15.4661 18.6016 15.4648 18.6016C15.4369 18.5859 15.4082 18.5715 15.3789 18.5586C15.3776 18.5586 15.3763 18.5586 15.375 18.5586C15.3133 18.5327 15.2492 18.5131 15.1836 18.5ZM19.1836 18.5H22.7422C22.5353 18.5552 22.3515 18.6752 22.2179 18.8426C22.0843 19.0099 22.008 19.2157 22 19.4297C21.9992 19.4531 21.9992 19.4766 22 19.5C22 20.0629 21.5629 20.5 21 20.5C20.4371 20.5 20 20.0629 20 19.5C20.0004 19.4661 19.9991 19.4322 19.9961 19.3984C19.9828 19.2486 19.9358 19.1037 19.8587 18.9745C19.7816 18.8453 19.6763 18.7352 19.5508 18.6523C19.5243 18.6341 19.4969 18.6172 19.4688 18.6016C19.4674 18.6016 19.4661 18.6016 19.4648 18.6016C19.4369 18.5859 19.4082 18.5715 19.3789 18.5586C19.3776 18.5586 19.3763 18.5586 19.375 18.5586C19.3133 18.5327 19.2492 18.5131 19.1836 18.5ZM23.2578 18.5H24.9297H25C25.5629 18.5 26 18.9371 26 19.5C26 20.0407 25.5932 20.4556 25.0625 20.4883C25.0209 20.4857 24.9791 20.4857 24.9375 20.4883C24.4068 20.4556 24 20.0407 24 19.5C24.0075 19.274 23.9382 19.0521 23.8034 18.8705C23.6686 18.6889 23.4763 18.5583 23.2578 18.5ZM7 21.7148C7.53323 22.1973 8.23182 22.5 9 22.5C9.76818 22.5 10.4668 22.1973 11 21.7148C11.5332 22.1973 12.2318 22.5 13 22.5C13.7682 22.5 14.4668 22.1973 15 21.7148C15.5332 22.1973 16.2318 22.5 17 22.5C17.7682 22.5 18.4668 22.1973 19 21.7148C19.5332 22.1973 20.2318 22.5 21 22.5C21.7682 22.5 22.4668 22.1973 23 21.7148C23.2894 21.9767 23.6285 22.1801 24 22.3164V23.5C24 24.0629 23.5629 24.5 23 24.5H7C6.43706 24.5 6 24.0629 6 23.5V22.3164C6.37147 22.1801 6.71062 21.9767 7 21.7148Z" fill="#225C4B"/>
</svg>
