<svg width="17" height="16" viewBox="0 0 17 16" fill="none" xmlns="http://www.w3.org/2000/svg">
<g clip-path="url(#clip0_328_241)">
<path d="M2 2C1.17578 2 0.5 2.67578 0.5 3.5V10.5C0.5 11.3242 1.17578 12 2 12H2.59375C2.80078 12.5781 3.35156 13 4 13C4.64844 13 5.19922 12.5781 5.40625 12H11.5664C11.7734 12.5781 12.3242 13 12.9727 13C13.6211 13 14.1719 12.5781 14.3789 12H15C15.8203 12 16.5 11.3242 16.5 10.5V8.80469C16.5 8.50781 16.4102 8.21484 16.2461 7.96875L14.6875 5.66797C14.4062 5.25 13.9375 5 13.4375 5H10.5V3.5C10.5 2.67578 9.82422 2 9 2H2ZM2 3H9C9.28125 3 9.5 3.21875 9.5 3.5V11H5.40625C5.19922 10.4219 4.64844 10 4 10C3.35156 10 2.80078 10.4219 2.59375 11H2C1.71875 11 1.5 10.7812 1.5 10.5V3.5C1.5 3.21875 1.71875 3 2 3ZM10.5 6H13.4375C13.6055 6 13.7617 6.08594 13.8555 6.22266V6.22656L15.4141 8.52734C15.4688 8.60937 15.5 8.70313 15.5 8.80469V10.5C15.5 10.7812 15.2812 11 15 11H14.3789C14.1719 10.4219 13.6211 10 12.9727 10C12.3242 10 11.7734 10.4219 11.5664 11H10.5V6ZM4 11C4.28125 11 4.5 11.2188 4.5 11.5C4.5 11.7812 4.28125 12 4 12C3.71875 12 3.5 11.7812 3.5 11.5C3.5 11.2188 3.71875 11 4 11ZM12.9727 11C13.2539 11 13.4727 11.2188 13.4727 11.5C13.4727 11.7812 13.2539 12 12.9727 12C12.6914 12 12.4727 11.7812 12.4727 11.5C12.4727 11.2188 12.6914 11 12.9727 11Z" fill="#EE728A"/>
</g>
<defs>
<clipPath id="clip0_328_241">
<rect width="16" height="16" fill="white" transform="translate(0.5)"/>
</clipPath>
</defs>
</svg>
