<svg width="17" height="16" viewBox="0 0 17 16" fill="none" xmlns="http://www.w3.org/2000/svg">
<path d="M7 0.999991C6.82031 0.996085 6.65234 1.09374 6.5625 1.24608C6.46875 1.40233 6.46875 1.59765 6.5625 1.7539C6.65234 1.90624 6.82031 2.0039 7 1.99999H7.5V3.02343C4.70312 3.28124 2.5 5.63671 2.5 8.49999C2.5 11.5312 4.96875 14 8 14C11.0312 14 13.5 11.5312 13.5 8.49999C13.5 5.63671 11.2969 3.28124 8.5 3.02343V1.99999H9C9.17969 2.0039 9.34766 1.90624 9.4375 1.7539C9.53125 1.59765 9.53125 1.40233 9.4375 1.24608C9.34766 1.09374 9.17969 0.996085 9 0.999991H7ZM11.9961 2.99218C11.7891 2.99608 11.6055 3.11718 11.5312 3.30858C11.4531 3.49608 11.5 3.71093 11.6445 3.85155L12.707 4.91405C12.8359 5.04687 13.0195 5.09765 13.1953 5.05468C13.3711 5.0078 13.5078 4.87108 13.5547 4.6953C13.5977 4.51952 13.5469 4.33593 13.418 4.21093L12.3555 3.14843C12.2578 3.05077 12.1289 2.99218 11.9961 2.99218ZM8 3.99999C10.4922 3.99999 12.5 6.0078 12.5 8.49999C12.5 10.9922 10.4922 13 8 13C5.50781 13 3.5 10.9922 3.5 8.49999C3.5 6.0078 5.50781 3.99999 8 3.99999ZM5.99219 5.99218C5.78906 5.99608 5.60547 6.11718 5.53125 6.30859C5.45312 6.49609 5.5 6.71093 5.64844 6.85155L7.64844 8.85155C7.77344 8.98437 7.95703 9.03515 8.13281 8.99218C8.30859 8.9453 8.44531 8.80859 8.49219 8.6328C8.53516 8.45702 8.48438 8.27343 8.35156 8.14843L6.35156 6.14843C6.25781 6.05077 6.12891 5.99218 5.99219 5.99218Z" fill="#EE728A"/>
</svg>
