<svg width="33" height="32" viewBox="0 0 33 32" fill="none" xmlns="http://www.w3.org/2000/svg">
<path d="M2.5 1.98438V3.98438H6.5C6.92969 3.98438 7.29688 4.26562 7.4375 4.67188L9.30469 21.3359C9.47656 22.8438 10.7734 24 12.2891 24H24.5V22H12.2891C11.7734 22 11.3516 21.625 11.2969 21.1172L11.1719 20H23.8594C25.2812 20 26.5234 18.9844 26.8047 17.5937L28.7188 8H9.82031L9.39063 4.1875L9.35938 4.09375C8.97656 2.84375 7.8125 1.99219 6.5 1.98438H2.5ZM22.5 24C21.3984 24 20.5 24.8984 20.5 26C20.5 27.1016 21.3984 28 22.5 28C23.6016 28 24.5 27.1016 24.5 26C24.5 24.8984 23.6016 24 22.5 24ZM12.5 24C11.3984 24 10.5 24.8984 10.5 26C10.5 27.1016 11.3984 28 12.5 28C13.6016 28 14.5 27.1016 14.5 26C14.5 24.8984 13.6016 24 12.5 24ZM10.0469 10H26.2812L24.8438 17.1953C24.7422 17.6719 24.3438 18 23.8594 18H10.9453L10.0469 10Z" fill="white"/>
</svg>
